solid circular_second_part_ground_truth
   facet normal -0.000000e+00 -1.000000e+00 0.000000e+00
      outer loop
         vertex 4.600000e+01 0.000000e+00 4.000000e+01
         vertex 2.550000e+01 0.000000e+00 4.000000e+01
         vertex 2.550000e+01 0.000000e+00 3.700000e+01
      endloop
   endfacet
   facet normal 0.000000e+00 -1.000000e+00 0.000000e+00
      outer loop
         vertex 2.821581e+01 0.000000e+00 3.133031e+01
         vertex 3.062500e+01 0.000000e+00 3.020689e+01
         vertex 2.550000e+01 0.000000e+00 3.700000e+01
      endloop
   endfacet
   facet normal 0.000000e+00 -1.000000e+00 0.000000e+00
      outer loop
         vertex 3.620689e+01 0.000000e+00 2.462500e+01
         vertex 4.600000e+01 0.000000e+00 4.000000e+01
         vertex 3.468218e+01 0.000000e+00 2.680251e+01
      endloop
   endfacet
   facet normal 0.000000e+00 -1.000000e+00 0.000000e+00
      outer loop
         vertex 3.468218e+01 0.000000e+00 2.680251e+01
         vertex 4.600000e+01 0.000000e+00 4.000000e+01
         vertex 2.550000e+01 0.000000e+00 3.700000e+01
      endloop
   endfacet
   facet normal 0.000000e+00 -1.000000e+00 0.000000e+00
      outer loop
         vertex 3.468218e+01 0.000000e+00 2.680251e+01
         vertex 2.550000e+01 0.000000e+00 3.700000e+01
         vertex 3.280251e+01 0.000000e+00 2.868218e+01
      endloop
   endfacet
   facet normal 0.000000e+00 -1.000000e+00 0.000000e+00
      outer loop
         vertex 3.280251e+01 0.000000e+00 2.868218e+01
         vertex 2.550000e+01 0.000000e+00 3.700000e+01
         vertex 3.062500e+01 0.000000e+00 3.020689e+01
      endloop
   endfacet
   facet normal 0.000000e+00 -1.000000e+00 -0.000000e+00
      outer loop
         vertex 2.035187e+01 0.000000e+00 1.981683e+00
         vertex 0.000000e+00 0.000000e+00 0.000000e+00
         vertex 2.300000e+01 0.000000e+00 1.750001e+00
      endloop
   endfacet
   facet normal 0.000000e+00 -1.000000e+00 -0.000000e+00
      outer loop
         vertex 2.300000e+01 0.000000e+00 1.750001e+00
         vertex 0.000000e+00 0.000000e+00 0.000000e+00
         vertex 4.600000e+01 0.000000e+00 0.000000e+00
      endloop
   endfacet
   facet normal 0.000000e+00 -1.000000e+00 0.000000e+00
      outer loop
         vertex 2.300000e+01 0.000000e+00 1.750001e+00
         vertex 4.600000e+01 0.000000e+00 0.000000e+00
         vertex 2.564813e+01 0.000000e+00 1.981683e+00
      endloop
   endfacet
   facet normal 0.000000e+00 -1.000000e+00 0.000000e+00
      outer loop
         vertex 2.564813e+01 0.000000e+00 1.981683e+00
         vertex 4.600000e+01 0.000000e+00 0.000000e+00
         vertex 2.821581e+01 0.000000e+00 2.669688e+00
      endloop
   endfacet
   facet normal -0.000000e+00 -1.000000e+00 0.000000e+00
      outer loop
         vertex 2.035187e+01 0.000000e+00 1.981683e+00
         vertex 1.778419e+01 0.000000e+00 2.669688e+00
         vertex 0.000000e+00 0.000000e+00 0.000000e+00
      endloop
   endfacet
   facet normal 0.000000e+00 -1.000000e+00 0.000000e+00
      outer loop
         vertex 0.000000e+00 0.000000e+00 0.000000e+00
         vertex 1.778419e+01 0.000000e+00 2.669688e+00
         vertex 1.537500e+01 0.000000e+00 3.793114e+00
      endloop
   endfacet
   facet normal 0.000000e+00 -1.000000e+00 0.000000e+00
      outer loop
         vertex 0.000000e+00 0.000000e+00 0.000000e+00
         vertex 1.537500e+01 0.000000e+00 3.793114e+00
         vertex 1.319749e+01 0.000000e+00 5.317823e+00
      endloop
   endfacet
   facet normal 0.000000e+00 -1.000000e+00 -0.000000e+00
      outer loop
         vertex 3.468218e+01 0.000000e+00 7.197490e+00
         vertex 3.280251e+01 0.000000e+00 5.317823e+00
         vertex 4.600000e+01 0.000000e+00 0.000000e+00
      endloop
   endfacet
   facet normal 0.000000e+00 -1.000000e+00 0.000000e+00
      outer loop
         vertex 4.600000e+01 0.000000e+00 0.000000e+00
         vertex 3.280251e+01 0.000000e+00 5.317823e+00
         vertex 3.062500e+01 0.000000e+00 3.793114e+00
      endloop
   endfacet
   facet normal 0.000000e+00 -1.000000e+00 0.000000e+00
      outer loop
         vertex 4.600000e+01 0.000000e+00 0.000000e+00
         vertex 3.062500e+01 0.000000e+00 3.793114e+00
         vertex 2.821581e+01 0.000000e+00 2.669688e+00
      endloop
   endfacet
   facet normal 0.000000e+00 -1.000000e+00 0.000000e+00
      outer loop
         vertex 1.131782e+01 0.000000e+00 2.680251e+01
         vertex 1.319749e+01 0.000000e+00 2.868218e+01
         vertex 2.050000e+01 0.000000e+00 3.700000e+01
      endloop
   endfacet
   facet normal 0.000000e+00 -1.000000e+00 0.000000e+00
      outer loop
         vertex 2.050000e+01 0.000000e+00 3.700000e+01
         vertex 1.319749e+01 0.000000e+00 2.868218e+01
         vertex 1.537500e+01 0.000000e+00 3.020689e+01
      endloop
   endfacet
   facet normal 0.000000e+00 -1.000000e+00 0.000000e+00
      outer loop
         vertex 2.050000e+01 0.000000e+00 3.700000e+01
         vertex 1.537500e+01 0.000000e+00 3.020689e+01
         vertex 1.778419e+01 0.000000e+00 3.133031e+01
      endloop
   endfacet
   facet normal 0.000000e+00 -1.000000e+00 0.000000e+00
      outer loop
         vertex 3.620689e+01 0.000000e+00 2.462500e+01
         vertex 3.733031e+01 0.000000e+00 2.221581e+01
         vertex 4.600000e+01 0.000000e+00 4.000000e+01
      endloop
   endfacet
   facet normal 0.000000e+00 -1.000000e+00 0.000000e+00
      outer loop
         vertex 4.600000e+01 0.000000e+00 4.000000e+01
         vertex 3.733031e+01 0.000000e+00 2.221581e+01
         vertex 3.801832e+01 0.000000e+00 1.964814e+01
      endloop
   endfacet
   facet normal 0.000000e+00 -1.000000e+00 -0.000000e+00
      outer loop
         vertex 4.600000e+01 0.000000e+00 4.000000e+01
         vertex 3.801832e+01 0.000000e+00 1.964814e+01
         vertex 4.600000e+01 0.000000e+00 0.000000e+00
      endloop
   endfacet
   facet normal 0.000000e+00 -1.000000e+00 0.000000e+00
      outer loop
         vertex 4.600000e+01 0.000000e+00 0.000000e+00
         vertex 3.801832e+01 0.000000e+00 1.964814e+01
         vertex 3.825000e+01 0.000000e+00 1.700000e+01
      endloop
   endfacet
   facet normal 0.000000e+00 -1.000000e+00 0.000000e+00
      outer loop
         vertex 4.600000e+01 0.000000e+00 0.000000e+00
         vertex 3.825000e+01 0.000000e+00 1.700000e+01
         vertex 3.801832e+01 0.000000e+00 1.435187e+01
      endloop
   endfacet
   facet normal -0.000000e+00 -1.000000e+00 0.000000e+00
      outer loop
         vertex 1.319749e+01 0.000000e+00 5.317823e+00
         vertex 1.131782e+01 0.000000e+00 7.197490e+00
         vertex 0.000000e+00 0.000000e+00 0.000000e+00
      endloop
   endfacet
   facet normal 0.000000e+00 -1.000000e+00 0.000000e+00
      outer loop
         vertex 0.000000e+00 0.000000e+00 0.000000e+00
         vertex 1.131782e+01 0.000000e+00 7.197490e+00
         vertex 9.793113e+00 0.000000e+00 9.375001e+00
      endloop
   endfacet
   facet normal 0.000000e+00 -1.000000e+00 0.000000e+00
      outer loop
         vertex 0.000000e+00 0.000000e+00 0.000000e+00
         vertex 9.793113e+00 0.000000e+00 9.375001e+00
         vertex 8.669687e+00 0.000000e+00 1.178419e+01
      endloop
   endfacet
   facet normal -0.000000e+00 -1.000000e+00 0.000000e+00
      outer loop
         vertex 2.050000e+01 0.000000e+00 3.700000e+01
         vertex 2.050000e+01 0.000000e+00 4.000000e+01
         vertex 1.131782e+01 0.000000e+00 2.680251e+01
      endloop
   endfacet
   facet normal 0.000000e+00 -1.000000e+00 0.000000e+00
      outer loop
         vertex 1.131782e+01 0.000000e+00 2.680251e+01
         vertex 2.050000e+01 0.000000e+00 4.000000e+01
         vertex 0.000000e+00 0.000000e+00 4.000000e+01
      endloop
   endfacet
   facet normal -0.000000e+00 -1.000000e+00 0.000000e+00
      outer loop
         vertex 1.131782e+01 0.000000e+00 2.680251e+01
         vertex 0.000000e+00 0.000000e+00 4.000000e+01
         vertex 9.793113e+00 0.000000e+00 2.462500e+01
      endloop
   endfacet
   facet normal -0.000000e+00 -1.000000e+00 0.000000e+00
      outer loop
         vertex 9.793113e+00 0.000000e+00 2.462500e+01
         vertex 0.000000e+00 0.000000e+00 4.000000e+01
         vertex 8.669687e+00 0.000000e+00 2.221581e+01
      endloop
   endfacet
   facet normal 0.000000e+00 -1.000000e+00 0.000000e+00
      outer loop
         vertex 1.778419e+01 0.000000e+00 3.133031e+01
         vertex 2.035187e+01 0.000000e+00 3.201832e+01
         vertex 2.050000e+01 0.000000e+00 3.700000e+01
      endloop
   endfacet
   facet normal 0.000000e+00 -1.000000e+00 -0.000000e+00
      outer loop
         vertex 2.050000e+01 0.000000e+00 3.700000e+01
         vertex 2.035187e+01 0.000000e+00 3.201832e+01
         vertex 2.300000e+01 0.000000e+00 3.225000e+01
      endloop
   endfacet
   facet normal 0.000000e+00 -1.000000e+00 0.000000e+00
      outer loop
         vertex 2.050000e+01 0.000000e+00 3.700000e+01
         vertex 2.300000e+01 0.000000e+00 3.225000e+01
         vertex 2.550000e+01 0.000000e+00 3.700000e+01
      endloop
   endfacet
   facet normal 0.000000e+00 -1.000000e+00 -0.000000e+00
      outer loop
         vertex 2.550000e+01 0.000000e+00 3.700000e+01
         vertex 2.300000e+01 0.000000e+00 3.225000e+01
         vertex 2.564813e+01 0.000000e+00 3.201832e+01
      endloop
   endfacet
   facet normal 0.000000e+00 -1.000000e+00 0.000000e+00
      outer loop
         vertex 2.550000e+01 0.000000e+00 3.700000e+01
         vertex 2.564813e+01 0.000000e+00 3.201832e+01
         vertex 2.821581e+01 0.000000e+00 3.133031e+01
      endloop
   endfacet
   facet normal 0.000000e+00 -1.000000e+00 -0.000000e+00
      outer loop
         vertex 3.801832e+01 0.000000e+00 1.435187e+01
         vertex 3.733031e+01 0.000000e+00 1.178419e+01
         vertex 4.600000e+01 0.000000e+00 0.000000e+00
      endloop
   endfacet
   facet normal 0.000000e+00 -1.000000e+00 0.000000e+00
      outer loop
         vertex 4.600000e+01 0.000000e+00 0.000000e+00
         vertex 3.733031e+01 0.000000e+00 1.178419e+01
         vertex 3.620689e+01 0.000000e+00 9.375001e+00
      endloop
   endfacet
   facet normal 0.000000e+00 -1.000000e+00 0.000000e+00
      outer loop
         vertex 4.600000e+01 0.000000e+00 0.000000e+00
         vertex 3.620689e+01 0.000000e+00 9.375001e+00
         vertex 3.468218e+01 0.000000e+00 7.197490e+00
      endloop
   endfacet
   facet normal -0.000000e+00 -1.000000e+00 0.000000e+00
      outer loop
         vertex 8.669687e+00 0.000000e+00 1.178419e+01
         vertex 7.981682e+00 0.000000e+00 1.435187e+01
         vertex 0.000000e+00 0.000000e+00 0.000000e+00
      endloop
   endfacet
   facet normal 0.000000e+00 -1.000000e+00 0.000000e+00
      outer loop
         vertex 0.000000e+00 0.000000e+00 0.000000e+00
         vertex 7.981682e+00 0.000000e+00 1.435187e+01
         vertex 7.750000e+00 0.000000e+00 1.700000e+01
      endloop
   endfacet
   facet normal 0.000000e+00 -1.000000e+00 0.000000e+00
      outer loop
         vertex 0.000000e+00 0.000000e+00 0.000000e+00
         vertex 7.750000e+00 0.000000e+00 1.700000e+01
         vertex 0.000000e+00 0.000000e+00 4.000000e+01
      endloop
   endfacet
   facet normal 0.000000e+00 -1.000000e+00 0.000000e+00
      outer loop
         vertex 0.000000e+00 0.000000e+00 4.000000e+01
         vertex 7.750000e+00 0.000000e+00 1.700000e+01
         vertex 7.981682e+00 0.000000e+00 1.964814e+01
      endloop
   endfacet
   facet normal 0.000000e+00 -1.000000e+00 0.000000e+00
      outer loop
         vertex 0.000000e+00 0.000000e+00 4.000000e+01
         vertex 7.981682e+00 0.000000e+00 1.964814e+01
         vertex 8.669687e+00 0.000000e+00 2.221581e+01
      endloop
   endfacet
   facet normal 0.000000e+00 0.000000e+00 1.000000e+00
      outer loop
         vertex 0.000000e+00 0.000000e+00 4.000000e+01
         vertex 2.050000e+01 0.000000e+00 4.000000e+01
         vertex 2.050000e+01 4.500000e+00 4.000000e+01
      endloop
   endfacet
   facet normal 0.000000e+00 0.000000e+00 1.000000e+00
      outer loop
         vertex 2.550000e+01 0.000000e+00 4.000000e+01
         vertex 4.600000e+01 0.000000e+00 4.000000e+01
         vertex 2.550000e+01 4.500000e+00 4.000000e+01
      endloop
   endfacet
   facet normal -0.000000e+00 0.000000e+00 1.000000e+00
      outer loop
         vertex 2.550000e+01 4.500000e+00 4.000000e+01
         vertex 4.600000e+01 0.000000e+00 4.000000e+01
         vertex 4.600000e+01 1.300000e+02 4.000000e+01
      endloop
   endfacet
   facet normal 0.000000e+00 -0.000000e+00 1.000000e+00
      outer loop
         vertex 2.550000e+01 4.500000e+00 4.000000e+01
         vertex 4.600000e+01 1.300000e+02 4.000000e+01
         vertex 2.050000e+01 4.500000e+00 4.000000e+01
      endloop
   endfacet
   facet normal 0.000000e+00 -0.000000e+00 1.000000e+00
      outer loop
         vertex 2.050000e+01 4.500000e+00 4.000000e+01
         vertex 4.600000e+01 1.300000e+02 4.000000e+01
         vertex 0.000000e+00 1.300000e+02 4.000000e+01
      endloop
   endfacet
   facet normal 0.000000e+00 0.000000e+00 1.000000e+00
      outer loop
         vertex 2.050000e+01 4.500000e+00 4.000000e+01
         vertex 0.000000e+00 1.300000e+02 4.000000e+01
         vertex 0.000000e+00 0.000000e+00 4.000000e+01
      endloop
   endfacet
   facet normal 1.000000e+00 0.000000e+00 0.000000e+00
      outer loop
         vertex 4.600000e+01 1.300000e+02 4.000000e+01
         vertex 4.600000e+01 0.000000e+00 4.000000e+01
         vertex 4.600000e+01 1.300000e+02 0.000000e+00
      endloop
   endfacet
   facet normal 1.000000e+00 0.000000e+00 0.000000e+00
      outer loop
         vertex 4.600000e+01 1.300000e+02 0.000000e+00
         vertex 4.600000e+01 0.000000e+00 4.000000e+01
         vertex 4.600000e+01 0.000000e+00 0.000000e+00
      endloop
   endfacet
   facet normal -1.000000e+00 0.000000e+00 0.000000e+00
      outer loop
         vertex 0.000000e+00 0.000000e+00 4.000000e+01
         vertex 0.000000e+00 1.300000e+02 4.000000e+01
         vertex 0.000000e+00 0.000000e+00 0.000000e+00
      endloop
   endfacet
   facet normal -1.000000e+00 0.000000e+00 0.000000e+00
      outer loop
         vertex 0.000000e+00 0.000000e+00 0.000000e+00
         vertex 0.000000e+00 1.300000e+02 4.000000e+01
         vertex 0.000000e+00 1.300000e+02 0.000000e+00
      endloop
   endfacet
   facet normal 0.000000e+00 1.000000e+00 0.000000e+00
      outer loop
         vertex 1.778419e+01 1.300000e+02 3.133031e+01
         vertex 1.537500e+01 1.300000e+02 3.020689e+01
         vertex 0.000000e+00 1.300000e+02 4.000000e+01
      endloop
   endfacet
   facet normal 0.000000e+00 1.000000e+00 0.000000e+00
      outer loop
         vertex 1.537500e+01 1.300000e+02 3.020689e+01
         vertex 1.319749e+01 1.300000e+02 2.868218e+01
         vertex 0.000000e+00 1.300000e+02 4.000000e+01
      endloop
   endfacet
   facet normal 0.000000e+00 1.000000e+00 0.000000e+00
      outer loop
         vertex 0.000000e+00 1.300000e+02 4.000000e+01
         vertex 1.319749e+01 1.300000e+02 2.868218e+01
         vertex 1.131782e+01 1.300000e+02 2.680251e+01
      endloop
   endfacet
   facet normal 0.000000e+00 1.000000e+00 0.000000e+00
      outer loop
         vertex 0.000000e+00 1.300000e+02 4.000000e+01
         vertex 1.131782e+01 1.300000e+02 2.680251e+01
         vertex 9.793113e+00 1.300000e+02 2.462500e+01
      endloop
   endfacet
   facet normal 0.000000e+00 1.000000e+00 0.000000e+00
      outer loop
         vertex 7.981682e+00 1.300000e+02 1.435187e+01
         vertex 8.669687e+00 1.300000e+02 1.178419e+01
         vertex 0.000000e+00 1.300000e+02 0.000000e+00
      endloop
   endfacet
   facet normal 0.000000e+00 1.000000e+00 0.000000e+00
      outer loop
         vertex 0.000000e+00 1.300000e+02 0.000000e+00
         vertex 8.669687e+00 1.300000e+02 1.178419e+01
         vertex 9.793113e+00 1.300000e+02 9.375001e+00
      endloop
   endfacet
   facet normal 0.000000e+00 1.000000e+00 0.000000e+00
      outer loop
         vertex 0.000000e+00 1.300000e+02 0.000000e+00
         vertex 9.793113e+00 1.300000e+02 9.375001e+00
         vertex 1.131782e+01 1.300000e+02 7.197490e+00
      endloop
   endfacet
   facet normal 0.000000e+00 1.000000e+00 0.000000e+00
      outer loop
         vertex 9.793113e+00 1.300000e+02 2.462500e+01
         vertex 8.669687e+00 1.300000e+02 2.221581e+01
         vertex 0.000000e+00 1.300000e+02 4.000000e+01
      endloop
   endfacet
   facet normal 0.000000e+00 1.000000e+00 0.000000e+00
      outer loop
         vertex 0.000000e+00 1.300000e+02 4.000000e+01
         vertex 8.669687e+00 1.300000e+02 2.221581e+01
         vertex 7.981682e+00 1.300000e+02 1.964814e+01
      endloop
   endfacet
   facet normal 0.000000e+00 1.000000e+00 0.000000e+00
      outer loop
         vertex 0.000000e+00 1.300000e+02 4.000000e+01
         vertex 7.981682e+00 1.300000e+02 1.964814e+01
         vertex 0.000000e+00 1.300000e+02 0.000000e+00
      endloop
   endfacet
   facet normal 0.000000e+00 1.000000e+00 0.000000e+00
      outer loop
         vertex 0.000000e+00 1.300000e+02 0.000000e+00
         vertex 7.981682e+00 1.300000e+02 1.964814e+01
         vertex 7.750000e+00 1.300000e+02 1.700000e+01
      endloop
   endfacet
   facet normal 0.000000e+00 1.000000e+00 0.000000e+00
      outer loop
         vertex 0.000000e+00 1.300000e+02 0.000000e+00
         vertex 7.750000e+00 1.300000e+02 1.700000e+01
         vertex 7.981682e+00 1.300000e+02 1.435187e+01
      endloop
   endfacet
   facet normal 0.000000e+00 1.000000e+00 0.000000e+00
      outer loop
         vertex 1.131782e+01 1.300000e+02 7.197490e+00
         vertex 1.319749e+01 1.300000e+02 5.317823e+00
         vertex 0.000000e+00 1.300000e+02 0.000000e+00
      endloop
   endfacet
   facet normal 0.000000e+00 1.000000e+00 0.000000e+00
      outer loop
         vertex 0.000000e+00 1.300000e+02 0.000000e+00
         vertex 1.319749e+01 1.300000e+02 5.317823e+00
         vertex 1.537500e+01 1.300000e+02 3.793114e+00
      endloop
   endfacet
   facet normal 0.000000e+00 1.000000e+00 0.000000e+00
      outer loop
         vertex 0.000000e+00 1.300000e+02 0.000000e+00
         vertex 1.537500e+01 1.300000e+02 3.793114e+00
         vertex 1.778419e+01 1.300000e+02 2.669688e+00
      endloop
   endfacet
   facet normal 0.000000e+00 1.000000e+00 0.000000e+00
      outer loop
         vertex 1.778419e+01 1.300000e+02 2.669688e+00
         vertex 2.035187e+01 1.300000e+02 1.981683e+00
         vertex 0.000000e+00 1.300000e+02 0.000000e+00
      endloop
   endfacet
   facet normal 0.000000e+00 1.000000e+00 0.000000e+00
      outer loop
         vertex 0.000000e+00 1.300000e+02 0.000000e+00
         vertex 2.035187e+01 1.300000e+02 1.981683e+00
         vertex 2.300000e+01 1.300000e+02 1.750001e+00
      endloop
   endfacet
   facet normal 0.000000e+00 1.000000e+00 0.000000e+00
      outer loop
         vertex 0.000000e+00 1.300000e+02 0.000000e+00
         vertex 2.300000e+01 1.300000e+02 1.750001e+00
         vertex 4.600000e+01 1.300000e+02 0.000000e+00
      endloop
   endfacet
   facet normal 0.000000e+00 1.000000e+00 0.000000e+00
      outer loop
         vertex 4.600000e+01 1.300000e+02 0.000000e+00
         vertex 2.300000e+01 1.300000e+02 1.750001e+00
         vertex 2.564813e+01 1.300000e+02 1.981683e+00
      endloop
   endfacet
   facet normal -0.000000e+00 1.000000e+00 0.000000e+00
      outer loop
         vertex 2.564813e+01 1.300000e+02 1.981683e+00
         vertex 2.821581e+01 1.300000e+02 2.669688e+00
         vertex 4.600000e+01 1.300000e+02 0.000000e+00
      endloop
   endfacet
   facet normal 0.000000e+00 1.000000e+00 0.000000e+00
      outer loop
         vertex 4.600000e+01 1.300000e+02 0.000000e+00
         vertex 2.821581e+01 1.300000e+02 2.669688e+00
         vertex 3.062500e+01 1.300000e+02 3.793114e+00
      endloop
   endfacet
   facet normal 0.000000e+00 1.000000e+00 0.000000e+00
      outer loop
         vertex 4.600000e+01 1.300000e+02 0.000000e+00
         vertex 3.062500e+01 1.300000e+02 3.793114e+00
         vertex 3.280251e+01 1.300000e+02 5.317823e+00
      endloop
   endfacet
   facet normal 0.000000e+00 1.000000e+00 -0.000000e+00
      outer loop
         vertex 3.733031e+01 1.300000e+02 2.221581e+01
         vertex 3.620689e+01 1.300000e+02 2.462500e+01
         vertex 4.600000e+01 1.300000e+02 4.000000e+01
      endloop
   endfacet
   facet normal 0.000000e+00 1.000000e+00 0.000000e+00
      outer loop
         vertex 4.600000e+01 1.300000e+02 4.000000e+01
         vertex 3.620689e+01 1.300000e+02 2.462500e+01
         vertex 3.468218e+01 1.300000e+02 2.680251e+01
      endloop
   endfacet
   facet normal 0.000000e+00 1.000000e+00 -0.000000e+00
      outer loop
         vertex 3.468218e+01 1.300000e+02 2.680251e+01
         vertex 3.280251e+01 1.300000e+02 2.868218e+01
         vertex 4.600000e+01 1.300000e+02 4.000000e+01
      endloop
   endfacet
   facet normal 0.000000e+00 1.000000e+00 0.000000e+00
      outer loop
         vertex 4.600000e+01 1.300000e+02 4.000000e+01
         vertex 3.280251e+01 1.300000e+02 2.868218e+01
         vertex 3.062500e+01 1.300000e+02 3.020689e+01
      endloop
   endfacet
   facet normal 0.000000e+00 1.000000e+00 0.000000e+00
      outer loop
         vertex 4.600000e+01 1.300000e+02 4.000000e+01
         vertex 3.062500e+01 1.300000e+02 3.020689e+01
         vertex 2.821581e+01 1.300000e+02 3.133031e+01
      endloop
   endfacet
   facet normal 0.000000e+00 1.000000e+00 -0.000000e+00
      outer loop
         vertex 2.821581e+01 1.300000e+02 3.133031e+01
         vertex 2.564813e+01 1.300000e+02 3.201832e+01
         vertex 4.600000e+01 1.300000e+02 4.000000e+01
      endloop
   endfacet
   facet normal 0.000000e+00 1.000000e+00 0.000000e+00
      outer loop
         vertex 4.600000e+01 1.300000e+02 4.000000e+01
         vertex 2.564813e+01 1.300000e+02 3.201832e+01
         vertex 2.300000e+01 1.300000e+02 3.225000e+01
      endloop
   endfacet
   facet normal 0.000000e+00 1.000000e+00 0.000000e+00
      outer loop
         vertex 4.600000e+01 1.300000e+02 4.000000e+01
         vertex 2.300000e+01 1.300000e+02 3.225000e+01
         vertex 0.000000e+00 1.300000e+02 4.000000e+01
      endloop
   endfacet
   facet normal 0.000000e+00 1.000000e+00 0.000000e+00
      outer loop
         vertex 0.000000e+00 1.300000e+02 4.000000e+01
         vertex 2.300000e+01 1.300000e+02 3.225000e+01
         vertex 2.035187e+01 1.300000e+02 3.201832e+01
      endloop
   endfacet
   facet normal 0.000000e+00 1.000000e+00 0.000000e+00
      outer loop
         vertex 0.000000e+00 1.300000e+02 4.000000e+01
         vertex 2.035187e+01 1.300000e+02 3.201832e+01
         vertex 1.778419e+01 1.300000e+02 3.133031e+01
      endloop
   endfacet
   facet normal -0.000000e+00 1.000000e+00 0.000000e+00
      outer loop
         vertex 3.280251e+01 1.300000e+02 5.317823e+00
         vertex 3.468218e+01 1.300000e+02 7.197490e+00
         vertex 4.600000e+01 1.300000e+02 0.000000e+00
      endloop
   endfacet
   facet normal 0.000000e+00 1.000000e+00 0.000000e+00
      outer loop
         vertex 4.600000e+01 1.300000e+02 0.000000e+00
         vertex 3.468218e+01 1.300000e+02 7.197490e+00
         vertex 3.620689e+01 1.300000e+02 9.375001e+00
      endloop
   endfacet
   facet normal 0.000000e+00 1.000000e+00 0.000000e+00
      outer loop
         vertex 4.600000e+01 1.300000e+02 0.000000e+00
         vertex 3.620689e+01 1.300000e+02 9.375001e+00
         vertex 3.733031e+01 1.300000e+02 1.178419e+01
      endloop
   endfacet
   facet normal -0.000000e+00 1.000000e+00 0.000000e+00
      outer loop
         vertex 3.733031e+01 1.300000e+02 1.178419e+01
         vertex 3.801832e+01 1.300000e+02 1.435187e+01
         vertex 4.600000e+01 1.300000e+02 0.000000e+00
      endloop
   endfacet
   facet normal 0.000000e+00 1.000000e+00 0.000000e+00
      outer loop
         vertex 4.600000e+01 1.300000e+02 0.000000e+00
         vertex 3.801832e+01 1.300000e+02 1.435187e+01
         vertex 3.825000e+01 1.300000e+02 1.700000e+01
      endloop
   endfacet
   facet normal 0.000000e+00 1.000000e+00 -0.000000e+00
      outer loop
         vertex 4.600000e+01 1.300000e+02 0.000000e+00
         vertex 3.825000e+01 1.300000e+02 1.700000e+01
         vertex 4.600000e+01 1.300000e+02 4.000000e+01
      endloop
   endfacet
   facet normal 0.000000e+00 1.000000e+00 0.000000e+00
      outer loop
         vertex 4.600000e+01 1.300000e+02 4.000000e+01
         vertex 3.825000e+01 1.300000e+02 1.700000e+01
         vertex 3.801832e+01 1.300000e+02 1.964814e+01
      endloop
   endfacet
   facet normal 0.000000e+00 1.000000e+00 0.000000e+00
      outer loop
         vertex 4.600000e+01 1.300000e+02 4.000000e+01
         vertex 3.801832e+01 1.300000e+02 1.964814e+01
         vertex 3.733031e+01 1.300000e+02 2.221581e+01
      endloop
   endfacet
   facet normal -8.715595e-02 0.000000e+00 -9.961947e-01
      outer loop
         vertex 2.300000e+01 0.000000e+00 3.225000e+01
         vertex 2.300000e+01 1.300000e+02 3.225000e+01
         vertex 2.564813e+01 0.000000e+00 3.201832e+01
      endloop
   endfacet
   facet normal -8.715595e-02 0.000000e+00 -9.961947e-01
      outer loop
         vertex 2.564813e+01 0.000000e+00 3.201832e+01
         vertex 2.300000e+01 1.300000e+02 3.225000e+01
         vertex 2.564813e+01 1.300000e+02 3.201832e+01
      endloop
   endfacet
   facet normal -2.588188e-01 0.000000e+00 -9.659259e-01
      outer loop
         vertex 2.564813e+01 0.000000e+00 3.201832e+01
         vertex 2.564813e+01 1.300000e+02 3.201832e+01
         vertex 2.821581e+01 0.000000e+00 3.133031e+01
      endloop
   endfacet
   facet normal -2.588188e-01 0.000000e+00 -9.659259e-01
      outer loop
         vertex 2.821581e+01 0.000000e+00 3.133031e+01
         vertex 2.564813e+01 1.300000e+02 3.201832e+01
         vertex 2.821581e+01 1.300000e+02 3.133031e+01
      endloop
   endfacet
   facet normal -4.226184e-01 0.000000e+00 -9.063077e-01
      outer loop
         vertex 2.821581e+01 0.000000e+00 3.133031e+01
         vertex 2.821581e+01 1.300000e+02 3.133031e+01
         vertex 3.062500e+01 0.000000e+00 3.020689e+01
      endloop
   endfacet
   facet normal -4.226184e-01 0.000000e+00 -9.063077e-01
      outer loop
         vertex 3.062500e+01 0.000000e+00 3.020689e+01
         vertex 2.821581e+01 1.300000e+02 3.133031e+01
         vertex 3.062500e+01 1.300000e+02 3.020689e+01
      endloop
   endfacet
   facet normal -5.735763e-01 0.000000e+00 -8.191521e-01
      outer loop
         vertex 3.062500e+01 0.000000e+00 3.020689e+01
         vertex 3.062500e+01 1.300000e+02 3.020689e+01
         vertex 3.280251e+01 0.000000e+00 2.868218e+01
      endloop
   endfacet
   facet normal -5.735763e-01 0.000000e+00 -8.191521e-01
      outer loop
         vertex 3.280251e+01 0.000000e+00 2.868218e+01
         vertex 3.062500e+01 1.300000e+02 3.020689e+01
         vertex 3.280251e+01 1.300000e+02 2.868218e+01
      endloop
   endfacet
   facet normal -7.071068e-01 0.000000e+00 -7.071068e-01
      outer loop
         vertex 3.280251e+01 0.000000e+00 2.868218e+01
         vertex 3.280251e+01 1.300000e+02 2.868218e+01
         vertex 3.468218e+01 0.000000e+00 2.680251e+01
      endloop
   endfacet
   facet normal -7.071068e-01 0.000000e+00 -7.071068e-01
      outer loop
         vertex 3.468218e+01 0.000000e+00 2.680251e+01
         vertex 3.280251e+01 1.300000e+02 2.868218e+01
         vertex 3.468218e+01 1.300000e+02 2.680251e+01
      endloop
   endfacet
   facet normal -8.191521e-01 0.000000e+00 -5.735763e-01
      outer loop
         vertex 3.468218e+01 0.000000e+00 2.680251e+01
         vertex 3.468218e+01 1.300000e+02 2.680251e+01
         vertex 3.620689e+01 0.000000e+00 2.462500e+01
      endloop
   endfacet
   facet normal -8.191521e-01 0.000000e+00 -5.735763e-01
      outer loop
         vertex 3.620689e+01 0.000000e+00 2.462500e+01
         vertex 3.468218e+01 1.300000e+02 2.680251e+01
         vertex 3.620689e+01 1.300000e+02 2.462500e+01
      endloop
   endfacet
   facet normal -9.063077e-01 0.000000e+00 -4.226184e-01
      outer loop
         vertex 3.620689e+01 0.000000e+00 2.462500e+01
         vertex 3.620689e+01 1.300000e+02 2.462500e+01
         vertex 3.733031e+01 0.000000e+00 2.221581e+01
      endloop
   endfacet
   facet normal -9.063077e-01 0.000000e+00 -4.226184e-01
      outer loop
         vertex 3.733031e+01 0.000000e+00 2.221581e+01
         vertex 3.620689e+01 1.300000e+02 2.462500e+01
         vertex 3.733031e+01 1.300000e+02 2.221581e+01
      endloop
   endfacet
   facet normal -9.659259e-01 0.000000e+00 -2.588188e-01
      outer loop
         vertex 3.733031e+01 0.000000e+00 2.221581e+01
         vertex 3.733031e+01 1.300000e+02 2.221581e+01
         vertex 3.801832e+01 0.000000e+00 1.964814e+01
      endloop
   endfacet
   facet normal -9.659259e-01 0.000000e+00 -2.588188e-01
      outer loop
         vertex 3.801832e+01 0.000000e+00 1.964814e+01
         vertex 3.733031e+01 1.300000e+02 2.221581e+01
         vertex 3.801832e+01 1.300000e+02 1.964814e+01
      endloop
   endfacet
   facet normal -9.961947e-01 0.000000e+00 -8.715595e-02
      outer loop
         vertex 3.801832e+01 0.000000e+00 1.964814e+01
         vertex 3.801832e+01 1.300000e+02 1.964814e+01
         vertex 3.825000e+01 0.000000e+00 1.700000e+01
      endloop
   endfacet
   facet normal -9.961947e-01 0.000000e+00 -8.715595e-02
      outer loop
         vertex 3.825000e+01 0.000000e+00 1.700000e+01
         vertex 3.801832e+01 1.300000e+02 1.964814e+01
         vertex 3.825000e+01 1.300000e+02 1.700000e+01
      endloop
   endfacet
   facet normal -9.961947e-01 0.000000e+00 8.715595e-02
      outer loop
         vertex 3.825000e+01 0.000000e+00 1.700000e+01
         vertex 3.825000e+01 1.300000e+02 1.700000e+01
         vertex 3.801832e+01 0.000000e+00 1.435187e+01
      endloop
   endfacet
   facet normal -9.961947e-01 0.000000e+00 8.715595e-02
      outer loop
         vertex 3.801832e+01 0.000000e+00 1.435187e+01
         vertex 3.825000e+01 1.300000e+02 1.700000e+01
         vertex 3.801832e+01 1.300000e+02 1.435187e+01
      endloop
   endfacet
   facet normal -9.659259e-01 0.000000e+00 2.588188e-01
      outer loop
         vertex 3.801832e+01 0.000000e+00 1.435187e+01
         vertex 3.801832e+01 1.300000e+02 1.435187e+01
         vertex 3.733031e+01 0.000000e+00 1.178419e+01
      endloop
   endfacet
   facet normal -9.659259e-01 0.000000e+00 2.588188e-01
      outer loop
         vertex 3.733031e+01 0.000000e+00 1.178419e+01
         vertex 3.801832e+01 1.300000e+02 1.435187e+01
         vertex 3.733031e+01 1.300000e+02 1.178419e+01
      endloop
   endfacet
   facet normal -9.063077e-01 0.000000e+00 4.226184e-01
      outer loop
         vertex 3.733031e+01 0.000000e+00 1.178419e+01
         vertex 3.733031e+01 1.300000e+02 1.178419e+01
         vertex 3.620689e+01 0.000000e+00 9.375001e+00
      endloop
   endfacet
   facet normal -9.063077e-01 0.000000e+00 4.226184e-01
      outer loop
         vertex 3.620689e+01 0.000000e+00 9.375001e+00
         vertex 3.733031e+01 1.300000e+02 1.178419e+01
         vertex 3.620689e+01 1.300000e+02 9.375001e+00
      endloop
   endfacet
   facet normal -8.191521e-01 0.000000e+00 5.735763e-01
      outer loop
         vertex 3.620689e+01 0.000000e+00 9.375001e+00
         vertex 3.620689e+01 1.300000e+02 9.375001e+00
         vertex 3.468218e+01 0.000000e+00 7.197490e+00
      endloop
   endfacet
   facet normal -8.191521e-01 0.000000e+00 5.735763e-01
      outer loop
         vertex 3.468218e+01 0.000000e+00 7.197490e+00
         vertex 3.620689e+01 1.300000e+02 9.375001e+00
         vertex 3.468218e+01 1.300000e+02 7.197490e+00
      endloop
   endfacet
   facet normal -7.071068e-01 0.000000e+00 7.071068e-01
      outer loop
         vertex 3.468218e+01 0.000000e+00 7.197490e+00
         vertex 3.468218e+01 1.300000e+02 7.197490e+00
         vertex 3.280251e+01 0.000000e+00 5.317823e+00
      endloop
   endfacet
   facet normal -7.071068e-01 0.000000e+00 7.071068e-01
      outer loop
         vertex 3.280251e+01 0.000000e+00 5.317823e+00
         vertex 3.468218e+01 1.300000e+02 7.197490e+00
         vertex 3.280251e+01 1.300000e+02 5.317823e+00
      endloop
   endfacet
   facet normal -5.735763e-01 0.000000e+00 8.191521e-01
      outer loop
         vertex 3.280251e+01 0.000000e+00 5.317823e+00
         vertex 3.280251e+01 1.300000e+02 5.317823e+00
         vertex 3.062500e+01 0.000000e+00 3.793114e+00
      endloop
   endfacet
   facet normal -5.735763e-01 0.000000e+00 8.191521e-01
      outer loop
         vertex 3.062500e+01 0.000000e+00 3.793114e+00
         vertex 3.280251e+01 1.300000e+02 5.317823e+00
         vertex 3.062500e+01 1.300000e+02 3.793114e+00
      endloop
   endfacet
   facet normal -4.226184e-01 0.000000e+00 9.063077e-01
      outer loop
         vertex 3.062500e+01 0.000000e+00 3.793114e+00
         vertex 3.062500e+01 1.300000e+02 3.793114e+00
         vertex 2.821581e+01 0.000000e+00 2.669688e+00
      endloop
   endfacet
   facet normal -4.226184e-01 0.000000e+00 9.063077e-01
      outer loop
         vertex 2.821581e+01 0.000000e+00 2.669688e+00
         vertex 3.062500e+01 1.300000e+02 3.793114e+00
         vertex 2.821581e+01 1.300000e+02 2.669688e+00
      endloop
   endfacet
   facet normal -2.588188e-01 0.000000e+00 9.659259e-01
      outer loop
         vertex 2.821581e+01 0.000000e+00 2.669688e+00
         vertex 2.821581e+01 1.300000e+02 2.669688e+00
         vertex 2.564813e+01 0.000000e+00 1.981683e+00
      endloop
   endfacet
   facet normal -2.588188e-01 0.000000e+00 9.659259e-01
      outer loop
         vertex 2.564813e+01 0.000000e+00 1.981683e+00
         vertex 2.821581e+01 1.300000e+02 2.669688e+00
         vertex 2.564813e+01 1.300000e+02 1.981683e+00
      endloop
   endfacet
   facet normal -8.715595e-02 0.000000e+00 9.961947e-01
      outer loop
         vertex 2.564813e+01 0.000000e+00 1.981683e+00
         vertex 2.564813e+01 1.300000e+02 1.981683e+00
         vertex 2.300000e+01 0.000000e+00 1.750001e+00
      endloop
   endfacet
   facet normal -8.715595e-02 0.000000e+00 9.961947e-01
      outer loop
         vertex 2.300000e+01 0.000000e+00 1.750001e+00
         vertex 2.564813e+01 1.300000e+02 1.981683e+00
         vertex 2.300000e+01 1.300000e+02 1.750001e+00
      endloop
   endfacet
   facet normal 8.715595e-02 -0.000000e+00 9.961947e-01
      outer loop
         vertex 2.300000e+01 0.000000e+00 1.750001e+00
         vertex 2.300000e+01 1.300000e+02 1.750001e+00
         vertex 2.035187e+01 0.000000e+00 1.981683e+00
      endloop
   endfacet
   facet normal 8.715595e-02 -0.000000e+00 9.961947e-01
      outer loop
         vertex 2.035187e+01 0.000000e+00 1.981683e+00
         vertex 2.300000e+01 1.300000e+02 1.750001e+00
         vertex 2.035187e+01 1.300000e+02 1.981683e+00
      endloop
   endfacet
   facet normal 2.588188e-01 -0.000000e+00 9.659259e-01
      outer loop
         vertex 2.035187e+01 0.000000e+00 1.981683e+00
         vertex 2.035187e+01 1.300000e+02 1.981683e+00
         vertex 1.778419e+01 0.000000e+00 2.669688e+00
      endloop
   endfacet
   facet normal 2.588188e-01 -0.000000e+00 9.659259e-01
      outer loop
         vertex 1.778419e+01 0.000000e+00 2.669688e+00
         vertex 2.035187e+01 1.300000e+02 1.981683e+00
         vertex 1.778419e+01 1.300000e+02 2.669688e+00
      endloop
   endfacet
   facet normal 4.226184e-01 -0.000000e+00 9.063077e-01
      outer loop
         vertex 1.778419e+01 0.000000e+00 2.669688e+00
         vertex 1.778419e+01 1.300000e+02 2.669688e+00
         vertex 1.537500e+01 0.000000e+00 3.793114e+00
      endloop
   endfacet
   facet normal 4.226184e-01 -0.000000e+00 9.063077e-01
      outer loop
         vertex 1.537500e+01 0.000000e+00 3.793114e+00
         vertex 1.778419e+01 1.300000e+02 2.669688e+00
         vertex 1.537500e+01 1.300000e+02 3.793114e+00
      endloop
   endfacet
   facet normal 5.735763e-01 -0.000000e+00 8.191521e-01
      outer loop
         vertex 1.537500e+01 0.000000e+00 3.793114e+00
         vertex 1.537500e+01 1.300000e+02 3.793114e+00
         vertex 1.319749e+01 0.000000e+00 5.317823e+00
      endloop
   endfacet
   facet normal 5.735763e-01 -0.000000e+00 8.191521e-01
      outer loop
         vertex 1.319749e+01 0.000000e+00 5.317823e+00
         vertex 1.537500e+01 1.300000e+02 3.793114e+00
         vertex 1.319749e+01 1.300000e+02 5.317823e+00
      endloop
   endfacet
   facet normal 7.071068e-01 -0.000000e+00 7.071068e-01
      outer loop
         vertex 1.319749e+01 0.000000e+00 5.317823e+00
         vertex 1.319749e+01 1.300000e+02 5.317823e+00
         vertex 1.131782e+01 0.000000e+00 7.197490e+00
      endloop
   endfacet
   facet normal 7.071068e-01 -0.000000e+00 7.071068e-01
      outer loop
         vertex 1.131782e+01 0.000000e+00 7.197490e+00
         vertex 1.319749e+01 1.300000e+02 5.317823e+00
         vertex 1.131782e+01 1.300000e+02 7.197490e+00
      endloop
   endfacet
   facet normal 8.191521e-01 -0.000000e+00 5.735763e-01
      outer loop
         vertex 1.131782e+01 0.000000e+00 7.197490e+00
         vertex 1.131782e+01 1.300000e+02 7.197490e+00
         vertex 9.793113e+00 0.000000e+00 9.375001e+00
      endloop
   endfacet
   facet normal 8.191521e-01 -0.000000e+00 5.735763e-01
      outer loop
         vertex 9.793113e+00 0.000000e+00 9.375001e+00
         vertex 1.131782e+01 1.300000e+02 7.197490e+00
         vertex 9.793113e+00 1.300000e+02 9.375001e+00
      endloop
   endfacet
   facet normal 9.063077e-01 -0.000000e+00 4.226184e-01
      outer loop
         vertex 9.793113e+00 0.000000e+00 9.375001e+00
         vertex 9.793113e+00 1.300000e+02 9.375001e+00
         vertex 8.669687e+00 0.000000e+00 1.178419e+01
      endloop
   endfacet
   facet normal 9.063077e-01 -0.000000e+00 4.226184e-01
      outer loop
         vertex 8.669687e+00 0.000000e+00 1.178419e+01
         vertex 9.793113e+00 1.300000e+02 9.375001e+00
         vertex 8.669687e+00 1.300000e+02 1.178419e+01
      endloop
   endfacet
   facet normal 9.659259e-01 -0.000000e+00 2.588188e-01
      outer loop
         vertex 8.669687e+00 0.000000e+00 1.178419e+01
         vertex 8.669687e+00 1.300000e+02 1.178419e+01
         vertex 7.981682e+00 0.000000e+00 1.435187e+01
      endloop
   endfacet
   facet normal 9.659259e-01 -0.000000e+00 2.588188e-01
      outer loop
         vertex 7.981682e+00 0.000000e+00 1.435187e+01
         vertex 8.669687e+00 1.300000e+02 1.178419e+01
         vertex 7.981682e+00 1.300000e+02 1.435187e+01
      endloop
   endfacet
   facet normal 9.961947e-01 -0.000000e+00 8.715595e-02
      outer loop
         vertex 7.981682e+00 0.000000e+00 1.435187e+01
         vertex 7.981682e+00 1.300000e+02 1.435187e+01
         vertex 7.750000e+00 0.000000e+00 1.700000e+01
      endloop
   endfacet
   facet normal 9.961947e-01 -0.000000e+00 8.715595e-02
      outer loop
         vertex 7.750000e+00 0.000000e+00 1.700000e+01
         vertex 7.981682e+00 1.300000e+02 1.435187e+01
         vertex 7.750000e+00 1.300000e+02 1.700000e+01
      endloop
   endfacet
   facet normal 9.961947e-01 0.000000e+00 -8.715595e-02
      outer loop
         vertex 7.750000e+00 0.000000e+00 1.700000e+01
         vertex 7.750000e+00 1.300000e+02 1.700000e+01
         vertex 7.981682e+00 0.000000e+00 1.964814e+01
      endloop
   endfacet
   facet normal 9.961947e-01 0.000000e+00 -8.715595e-02
      outer loop
         vertex 7.981682e+00 0.000000e+00 1.964814e+01
         vertex 7.750000e+00 1.300000e+02 1.700000e+01
         vertex 7.981682e+00 1.300000e+02 1.964814e+01
      endloop
   endfacet
   facet normal 9.659259e-01 0.000000e+00 -2.588188e-01
      outer loop
         vertex 7.981682e+00 0.000000e+00 1.964814e+01
         vertex 7.981682e+00 1.300000e+02 1.964814e+01
         vertex 8.669687e+00 0.000000e+00 2.221581e+01
      endloop
   endfacet
   facet normal 9.659259e-01 0.000000e+00 -2.588188e-01
      outer loop
         vertex 8.669687e+00 0.000000e+00 2.221581e+01
         vertex 7.981682e+00 1.300000e+02 1.964814e+01
         vertex 8.669687e+00 1.300000e+02 2.221581e+01
      endloop
   endfacet
   facet normal 9.063077e-01 0.000000e+00 -4.226184e-01
      outer loop
         vertex 8.669687e+00 0.000000e+00 2.221581e+01
         vertex 8.669687e+00 1.300000e+02 2.221581e+01
         vertex 9.793113e+00 0.000000e+00 2.462500e+01
      endloop
   endfacet
   facet normal 9.063077e-01 0.000000e+00 -4.226184e-01
      outer loop
         vertex 9.793113e+00 0.000000e+00 2.462500e+01
         vertex 8.669687e+00 1.300000e+02 2.221581e+01
         vertex 9.793113e+00 1.300000e+02 2.462500e+01
      endloop
   endfacet
   facet normal 8.191521e-01 0.000000e+00 -5.735763e-01
      outer loop
         vertex 9.793113e+00 0.000000e+00 2.462500e+01
         vertex 9.793113e+00 1.300000e+02 2.462500e+01
         vertex 1.131782e+01 0.000000e+00 2.680251e+01
      endloop
   endfacet
   facet normal 8.191521e-01 0.000000e+00 -5.735763e-01
      outer loop
         vertex 1.131782e+01 0.000000e+00 2.680251e+01
         vertex 9.793113e+00 1.300000e+02 2.462500e+01
         vertex 1.131782e+01 1.300000e+02 2.680251e+01
      endloop
   endfacet
   facet normal 7.071068e-01 0.000000e+00 -7.071068e-01
      outer loop
         vertex 1.131782e+01 0.000000e+00 2.680251e+01
         vertex 1.131782e+01 1.300000e+02 2.680251e+01
         vertex 1.319749e+01 0.000000e+00 2.868218e+01
      endloop
   endfacet
   facet normal 7.071068e-01 0.000000e+00 -7.071068e-01
      outer loop
         vertex 1.319749e+01 0.000000e+00 2.868218e+01
         vertex 1.131782e+01 1.300000e+02 2.680251e+01
         vertex 1.319749e+01 1.300000e+02 2.868218e+01
      endloop
   endfacet
   facet normal 5.735763e-01 0.000000e+00 -8.191521e-01
      outer loop
         vertex 1.319749e+01 0.000000e+00 2.868218e+01
         vertex 1.319749e+01 1.300000e+02 2.868218e+01
         vertex 1.537500e+01 0.000000e+00 3.020689e+01
      endloop
   endfacet
   facet normal 5.735763e-01 0.000000e+00 -8.191521e-01
      outer loop
         vertex 1.537500e+01 0.000000e+00 3.020689e+01
         vertex 1.319749e+01 1.300000e+02 2.868218e+01
         vertex 1.537500e+01 1.300000e+02 3.020689e+01
      endloop
   endfacet
   facet normal 4.226184e-01 0.000000e+00 -9.063077e-01
      outer loop
         vertex 1.537500e+01 0.000000e+00 3.020689e+01
         vertex 1.537500e+01 1.300000e+02 3.020689e+01
         vertex 1.778419e+01 0.000000e+00 3.133031e+01
      endloop
   endfacet
   facet normal 4.226184e-01 0.000000e+00 -9.063077e-01
      outer loop
         vertex 1.778419e+01 0.000000e+00 3.133031e+01
         vertex 1.537500e+01 1.300000e+02 3.020689e+01
         vertex 1.778419e+01 1.300000e+02 3.133031e+01
      endloop
   endfacet
   facet normal 2.588188e-01 0.000000e+00 -9.659259e-01
      outer loop
         vertex 1.778419e+01 0.000000e+00 3.133031e+01
         vertex 1.778419e+01 1.300000e+02 3.133031e+01
         vertex 2.035187e+01 0.000000e+00 3.201832e+01
      endloop
   endfacet
   facet normal 2.588188e-01 0.000000e+00 -9.659259e-01
      outer loop
         vertex 2.035187e+01 0.000000e+00 3.201832e+01
         vertex 1.778419e+01 1.300000e+02 3.133031e+01
         vertex 2.035187e+01 1.300000e+02 3.201832e+01
      endloop
   endfacet
   facet normal 8.715595e-02 0.000000e+00 -9.961947e-01
      outer loop
         vertex 2.035187e+01 0.000000e+00 3.201832e+01
         vertex 2.035187e+01 1.300000e+02 3.201832e+01
         vertex 2.300000e+01 0.000000e+00 3.225000e+01
      endloop
   endfacet
   facet normal 8.715595e-02 0.000000e+00 -9.961947e-01
      outer loop
         vertex 2.300000e+01 0.000000e+00 3.225000e+01
         vertex 2.035187e+01 1.300000e+02 3.201832e+01
         vertex 2.300000e+01 1.300000e+02 3.225000e+01
      endloop
   endfacet
   facet normal -0.000000e+00 -0.000000e+00 -1.000000e+00
      outer loop
         vertex 4.600000e+01 1.300000e+02 0.000000e+00
         vertex 4.600000e+01 0.000000e+00 0.000000e+00
         vertex 0.000000e+00 1.300000e+02 0.000000e+00
      endloop
   endfacet
   facet normal 0.000000e+00 0.000000e+00 -1.000000e+00
      outer loop
         vertex 0.000000e+00 1.300000e+02 0.000000e+00
         vertex 4.600000e+01 0.000000e+00 0.000000e+00
         vertex 0.000000e+00 0.000000e+00 0.000000e+00
      endloop
   endfacet
   facet normal -1.000000e+00 -0.000000e+00 -0.000000e+00
      outer loop
         vertex 2.550000e+01 4.500000e+00 4.000000e+01
         vertex 2.550000e+01 4.500000e+00 3.700000e+01
         vertex 2.550000e+01 0.000000e+00 4.000000e+01
      endloop
   endfacet
   facet normal -1.000000e+00 0.000000e+00 0.000000e+00
      outer loop
         vertex 2.550000e+01 0.000000e+00 4.000000e+01
         vertex 2.550000e+01 4.500000e+00 3.700000e+01
         vertex 2.550000e+01 0.000000e+00 3.700000e+01
      endloop
   endfacet
   facet normal 0.000000e+00 0.000000e+00 1.000000e+00
      outer loop
         vertex 2.550000e+01 4.500000e+00 3.700000e+01
         vertex 2.050000e+01 4.500000e+00 3.700000e+01
         vertex 2.550000e+01 0.000000e+00 3.700000e+01
      endloop
   endfacet
   facet normal 0.000000e+00 0.000000e+00 1.000000e+00
      outer loop
         vertex 2.550000e+01 0.000000e+00 3.700000e+01
         vertex 2.050000e+01 4.500000e+00 3.700000e+01
         vertex 2.050000e+01 0.000000e+00 3.700000e+01
      endloop
   endfacet
   facet normal 1.000000e+00 0.000000e+00 -0.000000e+00
      outer loop
         vertex 2.050000e+01 4.500000e+00 3.700000e+01
         vertex 2.050000e+01 4.500000e+00 4.000000e+01
         vertex 2.050000e+01 0.000000e+00 3.700000e+01
      endloop
   endfacet
   facet normal 1.000000e+00 0.000000e+00 0.000000e+00
      outer loop
         vertex 2.050000e+01 0.000000e+00 3.700000e+01
         vertex 2.050000e+01 4.500000e+00 4.000000e+01
         vertex 2.050000e+01 0.000000e+00 4.000000e+01
      endloop
   endfacet
   facet normal 0.000000e+00 -1.000000e+00 0.000000e+00
      outer loop
         vertex 2.050000e+01 4.500000e+00 4.000000e+01
         vertex 2.050000e+01 4.500000e+00 3.700000e+01
         vertex 2.550000e+01 4.500000e+00 4.000000e+01
      endloop
   endfacet
   facet normal 0.000000e+00 -1.000000e+00 -0.000000e+00
      outer loop
         vertex 2.550000e+01 4.500000e+00 4.000000e+01
         vertex 2.050000e+01 4.500000e+00 3.700000e+01
         vertex 2.550000e+01 4.500000e+00 3.700000e+01
      endloop
   endfacet
endsolid